<?xml version="1.0" encoding="utf-8" standalone="no"?>
<!DOCTYPE svg PUBLIC "-//W3C//DTD SVG 1.1//EN"
  "http://www.w3.org/Graphics/SVG/1.1/DTD/svg11.dtd">
<svg xmlns:xlink="http://www.w3.org/1999/xlink" width="460.8pt" height="345.6pt" viewBox="0 0 460.8 345.6" xmlns="http://www.w3.org/2000/svg" version="1.1">
 <metadata>
  <rdf:RDF xmlns:dc="http://purl.org/dc/elements/1.1/" xmlns:cc="http://creativecommons.org/ns#" xmlns:rdf="http://www.w3.org/1999/02/22-rdf-syntax-ns#">
   <cc:Work>
    <dc:type rdf:resource="http://purl.org/dc/dcmitype/StillImage"/>
    <dc:date>2023-03-17T12:11:50.842923</dc:date>
    <dc:format>image/svg+xml</dc:format>
    <dc:creator>
     <cc:Agent>
      <dc:title>Matplotlib v3.5.2, https://matplotlib.org/</dc:title>
     </cc:Agent>
    </dc:creator>
   </cc:Work>
  </rdf:RDF>
 </metadata>
 <defs>
  <style type="text/css">*{stroke-linejoin: round; stroke-linecap: butt}</style>
 </defs>
 <g id="figure_1">
  <g id="patch_1">
   <path d="M 0 345.6 
L 460.8 345.6 
L 460.8 0 
L 0 0 
z
" style="fill: #ffffff"/>
  </g>
  <g id="axes_1">
   <g id="patch_2">
    <path d="M 57.6 307.584 
L 414.72 307.584 
L 414.72 41.472 
L 57.6 41.472 
z
" style="fill: #ffffff"/>
   </g>
   <g id="matplotlib.axis_1">
    <g id="xtick_1">
     <g id="line2d_1">
      <defs>
       <path id="m77f82479f2" d="M 0 0 
L 0 3.5 
" style="stroke: #000000; stroke-width: 0.8"/>
      </defs>
      <g>
       <use xlink:href="#m77f82479f2" x="73.832727" y="307.584" style="stroke: #000000; stroke-width: 0.8"/>
      </g>
     </g>
     <g id="text_1">
      <!-- −1.00 -->
      <g transform="translate(58.510071 322.182437)scale(0.1 -0.1)">
       <defs>
        <path id="DejaVuSans-2212" d="M 678 2272 
L 4684 2272 
L 4684 1741 
L 678 1741 
L 678 2272 
z
" transform="scale(0.015625)"/>
        <path id="DejaVuSans-31" d="M 794 531 
L 1825 531 
L 1825 4091 
L 703 3866 
L 703 4441 
L 1819 4666 
L 2450 4666 
L 2450 531 
L 3481 531 
L 3481 0 
L 794 0 
L 794 531 
z
" transform="scale(0.015625)"/>
        <path id="DejaVuSans-2e" d="M 684 794 
L 1344 794 
L 1344 0 
L 684 0 
L 684 794 
z
" transform="scale(0.015625)"/>
        <path id="DejaVuSans-30" d="M 2034 4250 
Q 1547 4250 1301 3770 
Q 1056 3291 1056 2328 
Q 1056 1369 1301 889 
Q 1547 409 2034 409 
Q 2525 409 2770 889 
Q 3016 1369 3016 2328 
Q 3016 3291 2770 3770 
Q 2525 4250 2034 4250 
z
M 2034 4750 
Q 2819 4750 3233 4129 
Q 3647 3509 3647 2328 
Q 3647 1150 3233 529 
Q 2819 -91 2034 -91 
Q 1250 -91 836 529 
Q 422 1150 422 2328 
Q 422 3509 836 4129 
Q 1250 4750 2034 4750 
z
" transform="scale(0.015625)"/>
       </defs>
       <use xlink:href="#DejaVuSans-2212"/>
       <use xlink:href="#DejaVuSans-31" x="83.789062"/>
       <use xlink:href="#DejaVuSans-2e" x="147.412109"/>
       <use xlink:href="#DejaVuSans-30" x="179.199219"/>
       <use xlink:href="#DejaVuSans-30" x="242.822266"/>
      </g>
     </g>
    </g>
    <g id="xtick_2">
     <g id="line2d_2">
      <g>
       <use xlink:href="#m77f82479f2" x="114.414545" y="307.584" style="stroke: #000000; stroke-width: 0.8"/>
      </g>
     </g>
     <g id="text_2">
      <!-- −0.75 -->
      <g transform="translate(99.091889 322.182437)scale(0.1 -0.1)">
       <defs>
        <path id="DejaVuSans-37" d="M 525 4666 
L 3525 4666 
L 3525 4397 
L 1831 0 
L 1172 0 
L 2766 4134 
L 525 4134 
L 525 4666 
z
" transform="scale(0.015625)"/>
        <path id="DejaVuSans-35" d="M 691 4666 
L 3169 4666 
L 3169 4134 
L 1269 4134 
L 1269 2991 
Q 1406 3038 1543 3061 
Q 1681 3084 1819 3084 
Q 2600 3084 3056 2656 
Q 3513 2228 3513 1497 
Q 3513 744 3044 326 
Q 2575 -91 1722 -91 
Q 1428 -91 1123 -41 
Q 819 9 494 109 
L 494 744 
Q 775 591 1075 516 
Q 1375 441 1709 441 
Q 2250 441 2565 725 
Q 2881 1009 2881 1497 
Q 2881 1984 2565 2268 
Q 2250 2553 1709 2553 
Q 1456 2553 1204 2497 
Q 953 2441 691 2322 
L 691 4666 
z
" transform="scale(0.015625)"/>
       </defs>
       <use xlink:href="#DejaVuSans-2212"/>
       <use xlink:href="#DejaVuSans-30" x="83.789062"/>
       <use xlink:href="#DejaVuSans-2e" x="147.412109"/>
       <use xlink:href="#DejaVuSans-37" x="179.199219"/>
       <use xlink:href="#DejaVuSans-35" x="242.822266"/>
      </g>
     </g>
    </g>
    <g id="xtick_3">
     <g id="line2d_3">
      <g>
       <use xlink:href="#m77f82479f2" x="154.996364" y="307.584" style="stroke: #000000; stroke-width: 0.8"/>
      </g>
     </g>
     <g id="text_3">
      <!-- −0.50 -->
      <g transform="translate(139.673707 322.182437)scale(0.1 -0.1)">
       <use xlink:href="#DejaVuSans-2212"/>
       <use xlink:href="#DejaVuSans-30" x="83.789062"/>
       <use xlink:href="#DejaVuSans-2e" x="147.412109"/>
       <use xlink:href="#DejaVuSans-35" x="179.199219"/>
       <use xlink:href="#DejaVuSans-30" x="242.822266"/>
      </g>
     </g>
    </g>
    <g id="xtick_4">
     <g id="line2d_4">
      <g>
       <use xlink:href="#m77f82479f2" x="195.578182" y="307.584" style="stroke: #000000; stroke-width: 0.8"/>
      </g>
     </g>
     <g id="text_4">
      <!-- −0.25 -->
      <g transform="translate(180.255526 322.182437)scale(0.1 -0.1)">
       <defs>
        <path id="DejaVuSans-32" d="M 1228 531 
L 3431 531 
L 3431 0 
L 469 0 
L 469 531 
Q 828 903 1448 1529 
Q 2069 2156 2228 2338 
Q 2531 2678 2651 2914 
Q 2772 3150 2772 3378 
Q 2772 3750 2511 3984 
Q 2250 4219 1831 4219 
Q 1534 4219 1204 4116 
Q 875 4013 500 3803 
L 500 4441 
Q 881 4594 1212 4672 
Q 1544 4750 1819 4750 
Q 2544 4750 2975 4387 
Q 3406 4025 3406 3419 
Q 3406 3131 3298 2873 
Q 3191 2616 2906 2266 
Q 2828 2175 2409 1742 
Q 1991 1309 1228 531 
z
" transform="scale(0.015625)"/>
       </defs>
       <use xlink:href="#DejaVuSans-2212"/>
       <use xlink:href="#DejaVuSans-30" x="83.789062"/>
       <use xlink:href="#DejaVuSans-2e" x="147.412109"/>
       <use xlink:href="#DejaVuSans-32" x="179.199219"/>
       <use xlink:href="#DejaVuSans-35" x="242.822266"/>
      </g>
     </g>
    </g>
    <g id="xtick_5">
     <g id="line2d_5">
      <g>
       <use xlink:href="#m77f82479f2" x="236.16" y="307.584" style="stroke: #000000; stroke-width: 0.8"/>
      </g>
     </g>
     <g id="text_5">
      <!-- 0.00 -->
      <g transform="translate(225.027187 322.182437)scale(0.1 -0.1)">
       <use xlink:href="#DejaVuSans-30"/>
       <use xlink:href="#DejaVuSans-2e" x="63.623047"/>
       <use xlink:href="#DejaVuSans-30" x="95.410156"/>
       <use xlink:href="#DejaVuSans-30" x="159.033203"/>
      </g>
     </g>
    </g>
    <g id="xtick_6">
     <g id="line2d_6">
      <g>
       <use xlink:href="#m77f82479f2" x="276.741818" y="307.584" style="stroke: #000000; stroke-width: 0.8"/>
      </g>
     </g>
     <g id="text_6">
      <!-- 0.25 -->
      <g transform="translate(265.609006 322.182437)scale(0.1 -0.1)">
       <use xlink:href="#DejaVuSans-30"/>
       <use xlink:href="#DejaVuSans-2e" x="63.623047"/>
       <use xlink:href="#DejaVuSans-32" x="95.410156"/>
       <use xlink:href="#DejaVuSans-35" x="159.033203"/>
      </g>
     </g>
    </g>
    <g id="xtick_7">
     <g id="line2d_7">
      <g>
       <use xlink:href="#m77f82479f2" x="317.323636" y="307.584" style="stroke: #000000; stroke-width: 0.8"/>
      </g>
     </g>
     <g id="text_7">
      <!-- 0.50 -->
      <g transform="translate(306.190824 322.182437)scale(0.1 -0.1)">
       <use xlink:href="#DejaVuSans-30"/>
       <use xlink:href="#DejaVuSans-2e" x="63.623047"/>
       <use xlink:href="#DejaVuSans-35" x="95.410156"/>
       <use xlink:href="#DejaVuSans-30" x="159.033203"/>
      </g>
     </g>
    </g>
    <g id="xtick_8">
     <g id="line2d_8">
      <g>
       <use xlink:href="#m77f82479f2" x="357.905455" y="307.584" style="stroke: #000000; stroke-width: 0.8"/>
      </g>
     </g>
     <g id="text_8">
      <!-- 0.75 -->
      <g transform="translate(346.772642 322.182437)scale(0.1 -0.1)">
       <use xlink:href="#DejaVuSans-30"/>
       <use xlink:href="#DejaVuSans-2e" x="63.623047"/>
       <use xlink:href="#DejaVuSans-37" x="95.410156"/>
       <use xlink:href="#DejaVuSans-35" x="159.033203"/>
      </g>
     </g>
    </g>
    <g id="xtick_9">
     <g id="line2d_9">
      <g>
       <use xlink:href="#m77f82479f2" x="398.487273" y="307.584" style="stroke: #000000; stroke-width: 0.8"/>
      </g>
     </g>
     <g id="text_9">
      <!-- 1.00 -->
      <g transform="translate(387.35446 322.182437)scale(0.1 -0.1)">
       <use xlink:href="#DejaVuSans-31"/>
       <use xlink:href="#DejaVuSans-2e" x="63.623047"/>
       <use xlink:href="#DejaVuSans-30" x="95.410156"/>
       <use xlink:href="#DejaVuSans-30" x="159.033203"/>
      </g>
     </g>
    </g>
   </g>
   <g id="matplotlib.axis_2">
    <g id="ytick_1">
     <g id="line2d_10">
      <defs>
       <path id="mfd50414874" d="M 0 0 
L -3.5 0 
" style="stroke: #000000; stroke-width: 0.8"/>
      </defs>
      <g>
       <use xlink:href="#mfd50414874" x="57.6" y="305.131169" style="stroke: #000000; stroke-width: 0.8"/>
      </g>
     </g>
     <g id="text_10">
      <!-- 0.0 -->
      <g transform="translate(34.696875 308.930387)scale(0.1 -0.1)">
       <use xlink:href="#DejaVuSans-30"/>
       <use xlink:href="#DejaVuSans-2e" x="63.623047"/>
       <use xlink:href="#DejaVuSans-30" x="95.410156"/>
      </g>
     </g>
    </g>
    <g id="ytick_2">
     <g id="line2d_11">
      <g>
       <use xlink:href="#mfd50414874" x="57.6" y="254.986691" style="stroke: #000000; stroke-width: 0.8"/>
      </g>
     </g>
     <g id="text_11">
      <!-- 0.2 -->
      <g transform="translate(34.696875 258.78591)scale(0.1 -0.1)">
       <use xlink:href="#DejaVuSans-30"/>
       <use xlink:href="#DejaVuSans-2e" x="63.623047"/>
       <use xlink:href="#DejaVuSans-32" x="95.410156"/>
      </g>
     </g>
    </g>
    <g id="ytick_3">
     <g id="line2d_12">
      <g>
       <use xlink:href="#mfd50414874" x="57.6" y="204.842214" style="stroke: #000000; stroke-width: 0.8"/>
      </g>
     </g>
     <g id="text_12">
      <!-- 0.4 -->
      <g transform="translate(34.696875 208.641433)scale(0.1 -0.1)">
       <defs>
        <path id="DejaVuSans-34" d="M 2419 4116 
L 825 1625 
L 2419 1625 
L 2419 4116 
z
M 2253 4666 
L 3047 4666 
L 3047 1625 
L 3713 1625 
L 3713 1100 
L 3047 1100 
L 3047 0 
L 2419 0 
L 2419 1100 
L 313 1100 
L 313 1709 
L 2253 4666 
z
" transform="scale(0.015625)"/>
       </defs>
       <use xlink:href="#DejaVuSans-30"/>
       <use xlink:href="#DejaVuSans-2e" x="63.623047"/>
       <use xlink:href="#DejaVuSans-34" x="95.410156"/>
      </g>
     </g>
    </g>
    <g id="ytick_4">
     <g id="line2d_13">
      <g>
       <use xlink:href="#mfd50414874" x="57.6" y="154.697737" style="stroke: #000000; stroke-width: 0.8"/>
      </g>
     </g>
     <g id="text_13">
      <!-- 0.6 -->
      <g transform="translate(34.696875 158.496956)scale(0.1 -0.1)">
       <defs>
        <path id="DejaVuSans-36" d="M 2113 2584 
Q 1688 2584 1439 2293 
Q 1191 2003 1191 1497 
Q 1191 994 1439 701 
Q 1688 409 2113 409 
Q 2538 409 2786 701 
Q 3034 994 3034 1497 
Q 3034 2003 2786 2293 
Q 2538 2584 2113 2584 
z
M 3366 4563 
L 3366 3988 
Q 3128 4100 2886 4159 
Q 2644 4219 2406 4219 
Q 1781 4219 1451 3797 
Q 1122 3375 1075 2522 
Q 1259 2794 1537 2939 
Q 1816 3084 2150 3084 
Q 2853 3084 3261 2657 
Q 3669 2231 3669 1497 
Q 3669 778 3244 343 
Q 2819 -91 2113 -91 
Q 1303 -91 875 529 
Q 447 1150 447 2328 
Q 447 3434 972 4092 
Q 1497 4750 2381 4750 
Q 2619 4750 2861 4703 
Q 3103 4656 3366 4563 
z
" transform="scale(0.015625)"/>
       </defs>
       <use xlink:href="#DejaVuSans-30"/>
       <use xlink:href="#DejaVuSans-2e" x="63.623047"/>
       <use xlink:href="#DejaVuSans-36" x="95.410156"/>
      </g>
     </g>
    </g>
    <g id="ytick_5">
     <g id="line2d_14">
      <g>
       <use xlink:href="#mfd50414874" x="57.6" y="104.55326" style="stroke: #000000; stroke-width: 0.8"/>
      </g>
     </g>
     <g id="text_14">
      <!-- 0.8 -->
      <g transform="translate(34.696875 108.352479)scale(0.1 -0.1)">
       <defs>
        <path id="DejaVuSans-38" d="M 2034 2216 
Q 1584 2216 1326 1975 
Q 1069 1734 1069 1313 
Q 1069 891 1326 650 
Q 1584 409 2034 409 
Q 2484 409 2743 651 
Q 3003 894 3003 1313 
Q 3003 1734 2745 1975 
Q 2488 2216 2034 2216 
z
M 1403 2484 
Q 997 2584 770 2862 
Q 544 3141 544 3541 
Q 544 4100 942 4425 
Q 1341 4750 2034 4750 
Q 2731 4750 3128 4425 
Q 3525 4100 3525 3541 
Q 3525 3141 3298 2862 
Q 3072 2584 2669 2484 
Q 3125 2378 3379 2068 
Q 3634 1759 3634 1313 
Q 3634 634 3220 271 
Q 2806 -91 2034 -91 
Q 1263 -91 848 271 
Q 434 634 434 1313 
Q 434 1759 690 2068 
Q 947 2378 1403 2484 
z
M 1172 3481 
Q 1172 3119 1398 2916 
Q 1625 2713 2034 2713 
Q 2441 2713 2670 2916 
Q 2900 3119 2900 3481 
Q 2900 3844 2670 4047 
Q 2441 4250 2034 4250 
Q 1625 4250 1398 4047 
Q 1172 3844 1172 3481 
z
" transform="scale(0.015625)"/>
       </defs>
       <use xlink:href="#DejaVuSans-30"/>
       <use xlink:href="#DejaVuSans-2e" x="63.623047"/>
       <use xlink:href="#DejaVuSans-38" x="95.410156"/>
      </g>
     </g>
    </g>
    <g id="ytick_6">
     <g id="line2d_15">
      <g>
       <use xlink:href="#mfd50414874" x="57.6" y="54.408783" style="stroke: #000000; stroke-width: 0.8"/>
      </g>
     </g>
     <g id="text_15">
      <!-- 1.0 -->
      <g transform="translate(34.696875 58.208001)scale(0.1 -0.1)">
       <use xlink:href="#DejaVuSans-31"/>
       <use xlink:href="#DejaVuSans-2e" x="63.623047"/>
       <use xlink:href="#DejaVuSans-30" x="95.410156"/>
      </g>
     </g>
    </g>
   </g>
   <g id="line2d_16">
    <defs>
     <path id="m20c3a195a0" d="M 0 3 
C 0.795609 3 1.55874 2.683901 2.12132 2.12132 
C 2.683901 1.55874 3 0.795609 3 0 
C 3 -0.795609 2.683901 -1.55874 2.12132 -2.12132 
C 1.55874 -2.683901 0.795609 -3 0 -3 
C -0.795609 -3 -1.55874 -2.683901 -2.12132 -2.12132 
C -2.683901 -1.55874 -3 -0.795609 -3 0 
C -3 0.795609 -2.683901 1.55874 -2.12132 2.12132 
C -1.55874 2.683901 -0.795609 3 0 3 
z
" style="stroke: #1f77b4"/>
    </defs>
    <g clip-path="url(#pdeea76c611)">
     <use xlink:href="#m20c3a195a0" x="73.832727" y="295.488" style="fill: #1f77b4; stroke: #1f77b4"/>
     <use xlink:href="#m20c3a195a0" x="82.157203" y="294.462877" style="fill: #1f77b4; stroke: #1f77b4"/>
     <use xlink:href="#m20c3a195a0" x="90.481678" y="293.268145" style="fill: #1f77b4; stroke: #1f77b4"/>
     <use xlink:href="#m20c3a195a0" x="98.806154" y="291.865019" style="fill: #1f77b4; stroke: #1f77b4"/>
     <use xlink:href="#m20c3a195a0" x="107.130629" y="290.203245" style="fill: #1f77b4; stroke: #1f77b4"/>
     <use xlink:href="#m20c3a195a0" x="115.455105" y="288.216916" style="fill: #1f77b4; stroke: #1f77b4"/>
     <use xlink:href="#m20c3a195a0" x="123.77958" y="285.81846" style="fill: #1f77b4; stroke: #1f77b4"/>
     <use xlink:href="#m20c3a195a0" x="132.104056" y="282.889903" style="fill: #1f77b4; stroke: #1f77b4"/>
     <use xlink:href="#m20c3a195a0" x="140.428531" y="279.270003" style="fill: #1f77b4; stroke: #1f77b4"/>
     <use xlink:href="#m20c3a195a0" x="148.753007" y="274.735126" style="fill: #1f77b4; stroke: #1f77b4"/>
     <use xlink:href="#m20c3a195a0" x="157.077483" y="268.970658" style="fill: #1f77b4; stroke: #1f77b4"/>
     <use xlink:href="#m20c3a195a0" x="165.401958" y="261.528522" style="fill: #1f77b4; stroke: #1f77b4"/>
     <use xlink:href="#m20c3a195a0" x="173.726434" y="251.765825" style="fill: #1f77b4; stroke: #1f77b4"/>
     <use xlink:href="#m20c3a195a0" x="182.050909" y="238.763478" style="fill: #1f77b4; stroke: #1f77b4"/>
     <use xlink:href="#m20c3a195a0" x="190.375385" y="221.24451" style="fill: #1f77b4; stroke: #1f77b4"/>
     <use xlink:href="#m20c3a195a0" x="198.69986" y="197.58781" style="fill: #1f77b4; stroke: #1f77b4"/>
     <use xlink:href="#m20c3a195a0" x="207.024336" y="166.256897" style="fill: #1f77b4; stroke: #1f77b4"/>
     <use xlink:href="#m20c3a195a0" x="215.348811" y="127.429049" style="fill: #1f77b4; stroke: #1f77b4"/>
     <use xlink:href="#m20c3a195a0" x="223.673287" y="86.718368" style="fill: #1f77b4; stroke: #1f77b4"/>
     <use xlink:href="#m20c3a195a0" x="231.997762" y="58.463155" style="fill: #1f77b4; stroke: #1f77b4"/>
     <use xlink:href="#m20c3a195a0" x="240.322238" y="58.463155" style="fill: #1f77b4; stroke: #1f77b4"/>
     <use xlink:href="#m20c3a195a0" x="248.646713" y="86.718368" style="fill: #1f77b4; stroke: #1f77b4"/>
     <use xlink:href="#m20c3a195a0" x="256.971189" y="127.429049" style="fill: #1f77b4; stroke: #1f77b4"/>
     <use xlink:href="#m20c3a195a0" x="265.295664" y="166.256897" style="fill: #1f77b4; stroke: #1f77b4"/>
     <use xlink:href="#m20c3a195a0" x="273.62014" y="197.58781" style="fill: #1f77b4; stroke: #1f77b4"/>
     <use xlink:href="#m20c3a195a0" x="281.944615" y="221.24451" style="fill: #1f77b4; stroke: #1f77b4"/>
     <use xlink:href="#m20c3a195a0" x="290.269091" y="238.763478" style="fill: #1f77b4; stroke: #1f77b4"/>
     <use xlink:href="#m20c3a195a0" x="298.593566" y="251.765825" style="fill: #1f77b4; stroke: #1f77b4"/>
     <use xlink:href="#m20c3a195a0" x="306.918042" y="261.528522" style="fill: #1f77b4; stroke: #1f77b4"/>
     <use xlink:href="#m20c3a195a0" x="315.242517" y="268.970658" style="fill: #1f77b4; stroke: #1f77b4"/>
     <use xlink:href="#m20c3a195a0" x="323.566993" y="274.735126" style="fill: #1f77b4; stroke: #1f77b4"/>
     <use xlink:href="#m20c3a195a0" x="331.891469" y="279.270003" style="fill: #1f77b4; stroke: #1f77b4"/>
     <use xlink:href="#m20c3a195a0" x="340.215944" y="282.889903" style="fill: #1f77b4; stroke: #1f77b4"/>
     <use xlink:href="#m20c3a195a0" x="348.54042" y="285.81846" style="fill: #1f77b4; stroke: #1f77b4"/>
     <use xlink:href="#m20c3a195a0" x="356.864895" y="288.216916" style="fill: #1f77b4; stroke: #1f77b4"/>
     <use xlink:href="#m20c3a195a0" x="365.189371" y="290.203245" style="fill: #1f77b4; stroke: #1f77b4"/>
     <use xlink:href="#m20c3a195a0" x="373.513846" y="291.865019" style="fill: #1f77b4; stroke: #1f77b4"/>
     <use xlink:href="#m20c3a195a0" x="381.838322" y="293.268145" style="fill: #1f77b4; stroke: #1f77b4"/>
     <use xlink:href="#m20c3a195a0" x="390.162797" y="294.462877" style="fill: #1f77b4; stroke: #1f77b4"/>
     <use xlink:href="#m20c3a195a0" x="398.487273" y="295.488" style="fill: #1f77b4; stroke: #1f77b4"/>
    </g>
   </g>
   <g id="line2d_17">
    <path d="M 73.832727 295.488 
L 83.582113 294.271373 
L 92.68154 292.92055 
L 100.806028 291.493124 
L 108.280557 289.951892 
L 114.780147 288.389889 
L 120.304799 286.873614 
L 126.47941 284.935857 
L 132.004062 282.928101 
L 136.228796 281.192252 
L 141.103489 278.945031 
L 144.678264 277.081898 
L 149.227977 274.448371 
L 152.477772 272.328806 
L 156.377527 269.501497 
L 159.302342 267.180415 
L 162.552138 264.278031 
L 166.126912 260.796892 
L 168.726749 257.954915 
L 171.651564 254.424944 
L 174.90136 250.180164 
L 177.176216 246.838513 
L 180.101032 242.113312 
L 183.025848 237.009123 
L 185.300704 232.564399 
L 187.900541 226.970289 
L 190.825356 220.162201 
L 193.100213 214.322273 
L 195.700049 206.943019 
L 198.299885 198.883379 
L 201.224701 189.092076 
L 203.824537 179.560777 
L 206.099394 170.312917 
L 208.69923 158.657181 
L 214.223882 132.770892 
L 219.423554 107.556362 
L 224.623227 82.348549 
L 226.248124 75.684453 
L 227.873022 69.926853 
L 229.49792 64.940422 
L 231.122817 60.589838 
L 232.747715 56.855606 
L 233.722654 55.24169 
L 234.697592 54.165747 
L 235.347551 53.747324 
L 235.99751 53.568 
L 236.647469 53.627775 
L 237.297428 53.926648 
L 237.947387 54.46462 
L 238.597346 55.24169 
L 239.572285 56.855606 
L 240.547224 58.997328 
L 242.172121 63.131465 
L 243.797019 67.847318 
L 245.421916 73.280212 
L 247.046814 79.56547 
L 248.671712 86.838311 
L 253.871384 112.374205 
L 258.746077 135.853861 
L 264.920688 164.569937 
L 267.195545 174.395479 
L 269.470401 183.248658 
L 272.070238 192.444577 
L 274.995053 201.98073 
L 277.594889 209.793989 
L 280.194726 216.898817 
L 282.469582 222.486213 
L 285.719378 229.828789 
L 288.319214 235.161529 
L 290.59407 239.330464 
L 294.168845 245.310836 
L 296.768681 249.260012 
L 299.043538 252.350947 
L 302.618313 256.812347 
L 305.543129 260.117093 
L 308.467944 263.042708 
L 312.042719 266.341779 
L 314.967535 268.759527 
L 319.192269 271.876025 
L 322.767043 274.248504 
L 326.991777 276.721022 
L 330.891532 278.785248 
L 335.441245 280.905476 
L 339.990958 282.803501 
L 345.84059 284.935857 
L 351.040262 286.583954 
L 356.889894 288.22335 
L 364.039443 289.951892 
L 371.513972 291.493124 
L 379.313481 292.867584 
L 387.762948 294.136986 
L 397.187355 295.338917 
L 398.487273 295.488 
L 398.487273 295.488 
" clip-path="url(#pdeea76c611)" style="fill: none; stroke: #ff7f0e; stroke-width: 1.5; stroke-linecap: square"/>
   </g>
   <g id="patch_3">
    <path d="M 57.6 307.584 
L 57.6 41.472 
" style="fill: none; stroke: #000000; stroke-width: 0.8; stroke-linejoin: miter; stroke-linecap: square"/>
   </g>
   <g id="patch_4">
    <path d="M 414.72 307.584 
L 414.72 41.472 
" style="fill: none; stroke: #000000; stroke-width: 0.8; stroke-linejoin: miter; stroke-linecap: square"/>
   </g>
   <g id="patch_5">
    <path d="M 57.6 307.584 
L 414.72 307.584 
" style="fill: none; stroke: #000000; stroke-width: 0.8; stroke-linejoin: miter; stroke-linecap: square"/>
   </g>
   <g id="patch_6">
    <path d="M 57.6 41.472 
L 414.72 41.472 
" style="fill: none; stroke: #000000; stroke-width: 0.8; stroke-linejoin: miter; stroke-linecap: square"/>
   </g>
  </g>
 </g>
 <defs>
  <clipPath id="pdeea76c611">
   <rect x="57.6" y="41.472" width="357.12" height="266.112"/>
  </clipPath>
 </defs>
</svg>
